<?xml version="1.0" standalone="no"?>
<!DOCTYPE svg PUBLIC "-//W3C//DTD SVG 1.1//EN" "http://www.w3.org/Graphics/SVG/1.1/DTD/svg11.dtd">
<svg t="1676623528028" class="icon" viewBox="0 0 1024 1024" version="1.1" xmlns="http://www.w3.org/2000/svg" p-id="2778" xmlns:xlink="http://www.w3.org/1999/xlink" width="200" height="200">
<path d="M992 832h-960C14.933333 832 0 817.066667 0 800S14.933333 768 32 768h960c17.066667 0 32 14.933333 32 32s-14.933333 32-32 32zM992 544h-960C14.933333 544 0 529.066667 0 512s14.933333-32 32-32h960c17.066667 0 32 14.933333 32 32s-14.933333 32-32 32zM992 256h-960C14.933333 256 0 241.066667 0 224S14.933333 192 32 192h960c17.066667 0 32 14.933333 32 32s-14.933333 32-32 32z" p-id="2779"></path>
</svg>